REM DIRINDEX 1\2,1\3,1\4,1\5
REM DIRNAME cjc093,folder01,folder02,folder03,folder04
TITLE ""
FILE "Round-15-360-361.mp3" MP3
  TRACK 01 AUDIO
    TITLE "0:"
    INDEX 01 00:00:00
  TRACK 02 AUDIO
    TITLE "2:cjc093_3934"
    INDEX 01 00:00:01
  TRACK 03 AUDIO
    TITLE "0:"
    INDEX 01 00:01:24
  TRACK 04 AUDIO
    TITLE "3:cjc093_3935"
    INDEX 01 00:01:64
  TRACK 05 AUDIO
    TITLE "0:"
    INDEX 01 00:04:13
  TRACK 06 AUDIO
    TITLE "4:cjc093_3936"
    INDEX 01 00:04:29
  TRACK 07 AUDIO
    TITLE "0:"
    INDEX 01 00:08:46
  TRACK 08 AUDIO
    TITLE "2:cjc093_3937"
    INDEX 01 00:09:59
  TRACK 09 AUDIO
    TITLE "0:"
    INDEX 01 00:11:07
  TRACK 10 AUDIO
    TITLE "3:cjc093_3938"
    INDEX 01 00:11:48
  TRACK 11 AUDIO
    TITLE "0:"
    INDEX 01 00:13:16
  TRACK 12 AUDIO
    TITLE "4:cjc093_3939"
    INDEX 01 00:13:41
  TRACK 13 AUDIO
    TITLE "0:"
    INDEX 01 00:17:61
  TRACK 14 AUDIO
    TITLE "2:cjc093_3940"
    INDEX 01 00:18:74
  TRACK 15 AUDIO
    TITLE "0:"
    INDEX 01 00:20:10
  TRACK 16 AUDIO
    TITLE "3:cjc093_3941"
    INDEX 01 00:20:55
  TRACK 17 AUDIO
    TITLE "0:"
    INDEX 01 00:23:40
  TRACK 18 AUDIO
    TITLE "4:cjc093_3942"
    INDEX 01 00:23:55
  TRACK 19 AUDIO
    TITLE "0:"
    INDEX 01 00:27:04
  TRACK 20 AUDIO
    TITLE "2:cjc093_3943"
    INDEX 01 00:28:13
  TRACK 21 AUDIO
    TITLE "0:"
    INDEX 01 00:29:07
  TRACK 22 AUDIO
    TITLE "3:cjc093_3944"
    INDEX 01 00:29:40
  TRACK 23 AUDIO
    TITLE "0:"
    INDEX 01 00:31:65
  TRACK 24 AUDIO
    TITLE "4:cjc093_3945"
    INDEX 01 00:32:31
  TRACK 25 AUDIO
    TITLE "0:"
    INDEX 01 00:36:42
  TRACK 26 AUDIO
    TITLE "3:cjc093_3946"
    INDEX 01 00:37:59
  TRACK 27 AUDIO
    TITLE "0:"
    INDEX 01 00:39:29
  TRACK 28 AUDIO
    TITLE "4:cjc093_3947"
    INDEX 01 00:39:62
  TRACK 29 AUDIO
    TITLE "0:"
    INDEX 01 00:43:11
  TRACK 30 AUDIO
    TITLE "2:cjc093_3948"
    INDEX 01 00:44:22
  TRACK 31 AUDIO
    TITLE "0:"
    INDEX 01 00:45:43
  TRACK 32 AUDIO
    TITLE "3:cjc093_3949"
    INDEX 01 00:46:06
  TRACK 33 AUDIO
    TITLE "0:"
    INDEX 01 00:48:55
  TRACK 34 AUDIO
    TITLE "4:cjc093_3950"
    INDEX 01 00:49:12
  TRACK 35 AUDIO
    TITLE "0:"
    INDEX 01 00:54:13
  TRACK 36 AUDIO
    TITLE "2:cjc093_3951"
    INDEX 01 00:55:34
  TRACK 37 AUDIO
    TITLE "0:"
    INDEX 01 00:56:43
  TRACK 38 AUDIO
    TITLE "3:cjc093_3952"
    INDEX 01 00:57:07
  TRACK 39 AUDIO
    TITLE "0:"
    INDEX 01 00:58:44
  TRACK 40 AUDIO
    TITLE "4:cjc093_3953"
    INDEX 01 00:58:66
  TRACK 41 AUDIO
    TITLE "0:"
    INDEX 01 01:02:01
  TRACK 42 AUDIO
    TITLE "2:cjc093_3954"
    INDEX 01 01:03:14
  TRACK 43 AUDIO
    TITLE "0:"
    INDEX 01 01:04:35
  TRACK 44 AUDIO
    TITLE "3:cjc093_3955"
    INDEX 01 01:04:64
  TRACK 45 AUDIO
    TITLE "0:"
    INDEX 01 01:06:43
  TRACK 46 AUDIO
    TITLE "4:cjc093_3956"
    INDEX 01 01:06:73
  TRACK 47 AUDIO
    TITLE "0:"
    INDEX 01 01:10:53
  TRACK 48 AUDIO
    TITLE "3:cjc093_3957"
    INDEX 01 01:11:52
  TRACK 49 AUDIO
    TITLE "0:"
    INDEX 01 01:14:72
  TRACK 50 AUDIO
    TITLE "4:cjc093_3958"
    INDEX 01 01:15:09
  TRACK 51 AUDIO
    TITLE "0:"
    INDEX 01 01:18:62
  TRACK 52 AUDIO
    TITLE "2:cjc093_3959"
    INDEX 01 01:19:74
  TRACK 53 AUDIO
    TITLE "0:"
    INDEX 01 01:21:10
  TRACK 54 AUDIO
    TITLE "3:cjc093_3960"
    INDEX 01 01:21:49
  TRACK 55 AUDIO
    TITLE "0:"
    INDEX 01 01:23:20
  TRACK 56 AUDIO
    TITLE "4:cjc093_3961"
    INDEX 01 01:23:32
  TRACK 57 AUDIO
    TITLE "0:"
    INDEX 01 01:27:01
  TRACK 58 AUDIO
    TITLE "2:cjc093_3962"
    INDEX 01 01:28:14
  TRACK 59 AUDIO
    TITLE "0:"
    INDEX 01 01:29:25
  TRACK 60 AUDIO
    TITLE "3:cjc093_3963"
    INDEX 01 01:29:54
  TRACK 61 AUDIO
    TITLE "0:"
    INDEX 01 01:31:41
  TRACK 62 AUDIO
    TITLE "4:cjc093_3964"
    INDEX 01 01:31:73
  TRACK 63 AUDIO
    TITLE "0:"
    INDEX 01 01:34:71
